<svg xmlns="http://www.w3.org/2000/svg" xmlns:svg="http://www.w3.org/2000/svg" style="enable-background:new 0 0 182 56" id="Layer_1" x="0" y="0" version="1.1" viewBox="0 0 182 56" xml:space="preserve"><metadata id="metadata108"/><style id="style86" type="text/css">.st0{fill-rule:evenodd;clip-rule:evenodd;fill:#252525;stroke:#cdcdcd}.st1{fill:#82bea0}.st2{fill:#fa6441}.st3{fill:#fff}.st4{font-family:&apos;Ubuntu&apos;}.st5{font-size:12px}.st6{font-size:24px}</style><title id="title88">[EN]-snap-store-black</title><desc id="desc90">Created with Sketch.</desc><g id="g101"><g id="Black-badge"><path id="Rectangle-path" d="M2,0h178c1.1,0,2,0.9,2,2v52c0,1.1-0.9,2-2,2H2c-1.1,0-2-0.9-2-2V2C0,0.9,0.9,0,2,0z" class="st0"/><g id="logo" transform="translate(137.53656,11)"><path id="body" d="M 19.46344,17.8 V 7.3 l 7.2,3.2 z m -13.8,13.8 8.9,-16.6 3.9,3.9 z m -5,-31.4 18.2,6.6 v 11.6 z" class="st1"/><polygon id="head" points="19.4 6.8 32.9 12.9 29.9 6.8" class="st2" transform="translate(0.46344)"/></g><text id="text96" x="64" y="17" class="st3 st4 st5"><tspan id="tspan110" style="font-style:normal;font-variant:normal;font-weight:400;font-stretch:normal;font-family:'Ubuntu Arabic';-inkscape-font-specification:'Ubuntu Arabic'">احصل عليه من</tspan></text><text id="text98" x="14" y="41" class="st3 st4 st6">Snap Store</text></g></g></svg>