<svg xmlns="http://www.w3.org/2000/svg" xmlns:xlink="http://www.w3.org/1999/xlink" id="Layer_1" x="0" y="0" version="1.1" viewBox="0 0 182 56" xml:space="preserve" style="enable-background:new 0 0 182 56"><style type="text/css">.st0{fill-rule:evenodd;clip-rule:evenodd;fill:#252525;stroke:#cdcdcd}.st1{fill:#82bea0}.st2{fill:#fa6441}.st3{fill:#fff}.st4{font-family:&apos;PingFangSC-Regular-GBpc-EUC-H&apos;}.st5{font-size:12px}.st6{font-family:&apos;Ubuntu&apos;}.st7{font-size:24px}</style><title>[TW]-snap-store-black</title><desc>Created with Sketch.</desc><g><g id="Black-badge"><path id="Rectangle-path" d="M2,0h178c1.1,0,2,0.9,2,2v52c0,1.1-0.9,2-2,2H2c-1.1,0-2-0.9-2-2V2C0,0.9,0.9,0,2,0z" class="st0"/><g id="logo" transform="translate(8.000000, 11.000000)"><path id="body" d="M19,17.8V7.3l7.2,3.2L19,17.8z M5.2,31.6L14.1,15l3.9,3.9L5.2,31.6z M0.2,0.2l18.2,6.6v11.6 L0.2,0.2z" class="st1"/><polygon id="head" points="29.9 6.8 19.4 6.8 32.9 12.9" class="st2"/></g><text class="st3 st4 st5" transform="matrix(1 0 0 1 50 19)">安裝軟體敬請移駕</text><text class="st3 st6 st7" transform="matrix(1 0 0 1 50 41)">Snap Store</text></g></g></svg>