<svg xmlns="http://www.w3.org/2000/svg" xmlns:svg="http://www.w3.org/2000/svg" id="Layer_1" x="0" y="0" version="1.1" viewBox="0 0 182 56" xml:space="preserve" style="enable-background:new 0 0 182 56"><metadata id="metadata24"/><style id="style2" type="text/css">.st0{fill-rule:evenodd;clip-rule:evenodd;fill:#252525;stroke:#cdcdcd}.st1{fill:#82bea0}.st2{fill:#fa6441}.st3{fill:#fff}.st4{font-family:&apos;Ubuntu&apos;}.st5{font-size:12px}.st6{font-size:24px}</style><title id="title4">[EN]-snap-store-black</title><desc id="desc6">Created with Sketch.</desc><g id="g17"><g id="Black-badge"><path id="Rectangle-path" d="M2,0h178c1.1,0,2,0.9,2,2v52c0,1.1-0.9,2-2,2H2c-1.1,0-2-0.9-2-2V2C0,0.9,0.9,0,2,0z" class="st0"/><g id="logo" transform="translate(8.000000, 11.000000)"><path id="body" d="M19,17.8V7.3l7.2,3.2L19,17.8z M5.2,31.6L14.1,15l3.9,3.9L5.2,31.6z M0.2,0.2l18.2,6.6v11.6 L0.2,0.2z" class="st1"/><polygon id="head" points="29.9 6.8 19.4 6.8 32.9 12.9" class="st2"/></g><text id="text12" class="st3 st4 st5" transform="translate(50,17)" style="font-size:12px;font-family:Ubuntu;fill:#fff">Disponível na</text><text id="text14" class="st3 st4 st6" transform="matrix(1 0 0 1 50 41)">Snap Store</text></g></g></svg>